<svg width="72" height="72" fill="none" xmlns="http://www.w3.org/2000/svg"><path d="M35.69 1 1 27.393V71h70V27.393L35.69 1Z" stroke="#C09A5D"/><path d="M66 71V29.599L35.734 7 6 29.599V71" stroke="#C09A5D"/><mask id="a" fill="#fff"><path d="M41.19 13.748a11.5 11.5 0 0 0-1.954 9.07l1.038-.213a10.441 10.441 0 0 1 1.775-8.235l-.858-.622Z"/></mask><path d="M41.19 13.748a11.5 11.5 0 0 0-1.954 9.07l1.038-.213a10.441 10.441 0 0 1 1.775-8.235l-.858-.622Z" stroke="#C09A5D" stroke-width="2" mask="url(#a)"/><path d="M57.119 39.4a9.82 9.82 0 0 1-5.021 3.51l-.012-.053c1.984-.609 3.664-1.92 4.894-3.561a9.646 9.646 0 1 0-13.14 2.191l-.09.149A9.819 9.819 0 1 1 57.12 39.4Z" stroke="#C09A5D"/><path d="M40.08 22.727a9.818 9.818 0 0 1 5.228 1.227l-.092.148a9.646 9.646 0 0 0-13.852 5.448c-.547 1.68-.752 3.515-.347 5.274l-.166.05c-.406-1.753-.224-3.619.348-5.378a9.82 9.82 0 0 1 8.881-6.769Zm-.926 19.53a9.82 9.82 0 0 1-4.527-1.88l.11-.133a9.646 9.646 0 0 0 4.441 1.841c1.601.228 3.066.126 4.56-.438l.07.159c-1.505.57-3 .686-4.654.45Z" stroke="#C09A5D"/><path fill-rule="evenodd" clip-rule="evenodd" d="M51.322 33.115a2.566 2.566 0 1 0-3.937-3.293 2.566 2.566 0 0 0 3.937 3.293Zm.767.642a3.566 3.566 0 1 0-5.47-4.577 3.566 3.566 0 0 0 5.47 4.577Z" fill="#C09A5D"/><path d="M31.5 35 28 37.5 27 41l-3-.5-1 3.5-3-.5-1 3.5-3.5-.5-.5 3v2l5 .5 15-12" stroke="#C09A5D"/><path fill-rule="evenodd" clip-rule="evenodd" d="m43.5 41.5 1-.188v4.055l2.146 3.756-2.493 1.995 1.454 2.423-2 2.5 1.522 2.537-2.476 2.476 1.98 2.773 3.414-2.133L51.5 42.5l.984.177-3.531 19.63-4.587 2.866-3.02-4.227 2.524-2.523-1.478-2.464 2-2.5-1.546-2.576 2.507-2.006-1.853-3.244V41.5Zm7.657-31.42a10.44 10.44 0 1 1-2.762 20.646h-.004l-.214 1.037a11.491 11.491 0 0 0 4.896-.055A11.5 11.5 0 0 0 49.72 9.026l1.437 1.054Z" fill="#C09A5D"/></svg>