<svg width="74" height="74" fill="none" xmlns="http://www.w3.org/2000/svg"><path d="M2.475 49.024c1.478-1.848 7.082-3.85 9.7-4.62l2.31-.923.461-3.233c-.308-.308-1.016-1.201-1.386-2.31a9.89 9.89 0 0 1-.462-2.771c-.462-.154-1.385-.462-1.385-2.31 0-1.847.308-2.155.462-2.31-.308-1.385-.924-3.695 0-5.542.923-1.848 3.233-4.157 6.466-4.157 3.234 0 6.467 2.31 6.929 4.157.462 1.847 0 5.08 0 5.08v.463c.308 0 .924.277.924 1.385 0 1.386 0 2.31-.462 2.772-.37.37-.77.462-.924.462 0 .616-.093 2.032-.462 2.771-.37.74-1.386 1.848-1.848 2.31l.462 2.771L27.5 46m22.089 1c.308-.462 2.402-2.688 2.771-3.057.37-.37 1.078-.462 1.386-.462v-1.848c-1.232-.308-3.788-1.016-4.157-1.385-.37-.37-1.078-.77-1.386-.924.616-1.078 1.848-3.51 1.848-4.62 0-1.385.462-8.314 1.847-10.161 1.386-1.848 3.234-3.233 6.005-3.233 2.772 0 5.081 1.385 6.005 3.233.924 1.848 1.705 7.39 1.847 8.776.143 1.386.462 2.771.924 3.695.462.924 1.078 1.694 1.386 2.31-.77.462-2.402 1.386-2.771 1.386-.37 0-2.002.615-2.772.923v1.386l1.386 1.386c.462.462 1.847 1.847 3.695 2.771 1.848.924 2.512 1.362 3.898 1.824" stroke="#C09A5D"/><path d="m16 66.5 2.179-8.7c.462-2.31.924-6.005 2.771-7.852 1.848-1.848 5.317-3.234 8.55-4.62L32 43.5l.96-.943V40.71c-.308-.307-.924-.461-1.386-1.385-.462-.924-.462-1.694-.462-2.31-.154-.154-.554-.462-.924-.462s-.923-.923-.923-1.847v-2.31c0-.739.616-1.232.923-1.386 0 0-.923-2.77-.923-4.157 0-1.385 0-2.771.462-3.695.461-.924 1.693-1.694 2.31-1.848 0-.461.295-.947.923-1.385.628-.438 2.771-.924 4.619-.924 1.847 0 5.08.924 6.467 3.233 1.108 1.848.77 6.621.462 8.776 0 0 .461 0 .923.462s.37.924 0 2.772c-.37 1.847-1.385 2.617-1.847 2.771 0 .462-.093 1.57-.462 2.31-.37.739-1.078 1.232-1.386 1.386v2.309l1.386 1.386 1.386.924c2.463.923 7.76 3.048 9.238 4.157 1.478 1.108 1.847 3.541 1.847 4.619L58 66.5" stroke="#C09A5D"/><circle cx="37" cy="37" r="36.5" stroke="#C09A5D"/></svg>