<svg width="77" height="75" fill="none" xmlns="http://www.w3.org/2000/svg"><path fill-rule="evenodd" clip-rule="evenodd" d="M71.5 33c0-4.332-.368-8.621-2.026-12.623a32.984 32.984 0 0 0-7.143-10.694l-.007-.007.717-.718a34.001 34.001 0 0 1 7.37 11.03C71.993 23.806 72.379 27.877 72.5 32c.01.333.015.666.015 1H71.5ZM21.31 61.908a33.379 33.379 0 0 0 25.329 3.335l.265.992-.004.001a34.407 34.407 0 0 1-26.104-3.439l.513-.889Zm1-57.816a33.379 33.379 0 0 0-15.553 20.27l-.992-.267.002-.004a34.406 34.406 0 0 1 16.03-20.887l.513.888Z" fill="#C09A5D"/><circle cx="42" cy="15" r="5.5" stroke="#C09A5D"/><path fill-rule="evenodd" clip-rule="evenodd" d="M39.442 0h-.512v3.803L34.25 7.06l-2.738-1.57-.443-.255-.255.44-2.558 4.404-.256.44.443.255 2.845 1.633v5.189l-2.845 1.632-.443.255.256.44 2.558 4.403.255.44.443-.254 2.738-1.57 4.68 3.256V30h6.139v-3.803l4.68-3.256 2.738 1.57.443.255.256-.44 2.558-4.404.256-.44-.443-.255-2.846-1.633v-5.188l2.846-1.633.443-.254-.256-.44-2.558-4.404-.256-.44-.443.254-2.737 1.57-4.68-3.256V0h-5.628Zm12.246 11.695 2.914-1.549-2.046-3.522-2.659 1.525-.286.164-.268-.192-5.084-3.64-.213-.148V1.017h-4.093v3.316l-.215.15-5.081 3.638-.268.192-.287-.164-2.658-1.525-2.046 3.522 2.913 1.55v6.609h-.215l-.04.023-2.658 1.526 2.046 3.523 2.658-1.526.287-.164.268.192 5.081 3.639.215.15v3.315h4.093v-3.315l.213-.148 5.084-3.641.268-.192.286.164 2.659 1.525 2.046-3.522-2.658-1.526-.04-.023h-.216v-6.61Z" fill="#C09A5D"/><circle cx="20" cy="39" r="5.5" stroke="#C09A5D"/><path fill-rule="evenodd" clip-rule="evenodd" d="M17.442 24h-.512v3.803l-4.68 3.256-2.738-1.57-.443-.255-.255.44-2.558 4.404-.256.44.443.255 2.845 1.633v5.188l-2.845 1.633-.443.255.256.44 2.558 4.403.255.44.443-.254 2.738-1.57 4.68 3.256V54h6.139v-3.803l4.68-3.257 2.738 1.571.443.255.256-.44 2.558-4.404.256-.44-.443-.255-2.846-1.633v-5.188l2.846-1.633.443-.254-.256-.44-2.558-4.404-.256-.44-.443.254-2.737 1.57-4.68-3.256V24h-5.628Zm12.246 11.695 2.914-1.549-2.046-3.522-2.659 1.525-.286.164-.268-.192-5.084-3.64-.213-.149v-3.315h-4.093v3.315l-.215.15-5.081 3.64-.268.191-.287-.164-2.658-1.526-2.047 3.523 2.914 1.55v6.609h-.215l-.04.023-2.659 1.526 2.047 3.523 2.658-1.526.287-.164.268.192 5.081 3.639.215.15v3.314h4.093v-3.316l.213-.147 5.084-3.641.268-.192.286.164 2.659 1.525 2.046-3.522-2.658-1.526-.04-.023h-.216v-6.609Z" fill="#C09A5D"/><circle cx="53" cy="45" r="5.5" stroke="#C09A5D"/><path fill-rule="evenodd" clip-rule="evenodd" d="M50.442 30h-.512v3.803l-4.68 3.256-2.738-1.57-.443-.255-.256.44-2.557 4.404-.256.44.443.255 2.845 1.633v5.188l-2.845 1.633-.443.255.256.44 2.557 4.403.256.44.443-.254 2.738-1.57 4.68 3.256V60h6.139v-3.803l4.68-3.257 2.738 1.571.443.255.256-.44 2.558-4.404.256-.44-.443-.255-2.846-1.633v-5.188l2.846-1.633.443-.254-.256-.44-2.558-4.404-.256-.44-.443.254-2.737 1.57-4.68-3.256V30h-5.628Zm12.246 11.695 2.914-1.549-2.046-3.522-2.659 1.525-.286.164-.268-.192-5.084-3.64-.213-.148v-3.316h-4.093v3.316l-.215.15-5.081 3.638-.268.192-.287-.164-2.658-1.526-2.047 3.523 2.914 1.55v6.609h-.215l-.04.023-2.658 1.526 2.046 3.523 2.658-1.526.287-.164.268.192 5.081 3.639.215.15v3.314h4.093v-3.316l.213-.147 5.084-3.641.268-.192.286.164 2.659 1.525 2.046-3.522-2.658-1.526-.04-.023h-.216v-6.609Z" fill="#C09A5D"/><path d="M14.5 2 22 3.5l-2 6M76.5 29l-4.555 4.58-3.813-5.047m-44.662 39.7-2.498-5.957 6.119-1.6" stroke="#C09A5D"/></svg>