<svg width="272" height="163" viewBox="0 0 272 163" fill="none" xmlns="http://www.w3.org/2000/svg">
<path fill-rule="evenodd" clip-rule="evenodd" d="M4.49431 143.077V81.4995H5.4203V143.077L6.67367 144.139L6.34628 144.929H0.327385L0 144.139L1.25333 143.077H2.17932L1.44515 144.003H5.22852L4.62992 143.405L4.49431 143.077Z" fill="white"/>
<path fill-rule="evenodd" clip-rule="evenodd" d="M166.541 161.134V107.89H165.615V160.942L164.362 162.196L164.689 162.986H170.708L171.036 162.196L169.647 160.807L168.856 161.134L169.59 162.06H165.807L166.406 161.462L166.541 161.134Z" fill="white"/>
<path fill-rule="evenodd" clip-rule="evenodd" d="M192.932 0L270.252 32.8853V33.8113L192.257 0.95182L114.076 11.6049L2.1794 78.7708V143.077H1.25342V78.2466L113.762 10.7131L192.932 0Z" fill="white"/>
<path fill-rule="evenodd" clip-rule="evenodd" d="M168.856 105.246L84.3993 66.642L84.7842 65.7998L169.782 104.651V161.134H168.856V105.246ZM84.1999 70.3746L159.134 104.186V105.112L84.0576 71.327L13.351 80.5697L13.231 79.6516L84.1999 70.3746Z" fill="white"/>
<path fill-rule="evenodd" clip-rule="evenodd" d="M192.247 0.871145L84.2894 66.665L2.24664 78.7165L2.11206 77.8004L83.666 65.7577L191.08 0.47583L192.247 0.871145Z" fill="white"/>
<path fill-rule="evenodd" clip-rule="evenodd" d="M196.037 86.1295V151.112L196.771 152.038H192.988L193.587 151.439L193.722 151.112V87.9815L192.796 88.4445V150.92L191.543 152.173L191.87 152.964H197.889L198.217 152.173L196.963 150.92V85.6665L196.037 86.1295Z" fill="white"/>
<path fill-rule="evenodd" clip-rule="evenodd" d="M221.965 68.0727V131.666L222.699 132.592H218.916L219.514 131.993L219.65 131.666V69.4617L218.724 70.3877V131.474L217.471 132.728L217.798 133.518H223.817L224.144 132.728L222.891 131.474V67.1467L221.965 68.0727Z" fill="white"/>
<path fill-rule="evenodd" clip-rule="evenodd" d="M246.04 50.9421V113.146L246.775 114.072H242.991L243.59 113.474L243.725 113.146V52.3311L242.8 53.2571V112.955L241.546 114.208L241.874 114.998H247.892L248.22 114.208L246.966 112.955V50.0161L246.04 50.9421Z" fill="white"/>
<path fill-rule="evenodd" clip-rule="evenodd" d="M269.19 34.2742V95.5526L269.924 96.4786H266.141L266.74 95.88L266.875 95.5526V36.1262L265.949 36.5892V95.3608L264.696 96.6142L265.023 97.4046H271.042L271.369 96.6142L270.116 95.3609V32.8853L269.19 34.2742Z" fill="white"/>
<path fill-rule="evenodd" clip-rule="evenodd" d="M270.252 33.8112L169.783 105.112L168.856 104.649L269.716 33.0562L270.252 33.8112Z" fill="white"/>
<path fill-rule="evenodd" clip-rule="evenodd" d="M264.696 33.8113L165.883 103.638L165.348 102.882L262.844 33.8113H264.696Z" fill="white"/>
<path fill-rule="evenodd" clip-rule="evenodd" d="M168.856 108.816L1.64038 81.4933L1.79219 80.5798L168.856 107.89V108.816Z" fill="white"/>
<path fill-rule="evenodd" clip-rule="evenodd" d="M159.134 105.112L13.2144 80.5669V79.6475L159.134 104.186V105.112Z" fill="white"/>
<path fill-rule="evenodd" clip-rule="evenodd" d="M115.307 13.8855L186.513 4.17569L186.913 3.25391L114.991 12.994L9.58716 76.8696L10.7531 77.2656L115.307 13.8855Z" fill="white"/>
<path fill-rule="evenodd" clip-rule="evenodd" d="M192.893 3.19678L264.696 33.8112L263.589 34.2372L192.972 4.23642L89.0023 68.4664L88.5156 67.6786L192.893 3.19678Z" fill="white"/>
<path fill-rule="evenodd" clip-rule="evenodd" d="M83.666 70.8506V66.2207H84.592V70.8506H83.666Z" fill="white"/>
<path fill-rule="evenodd" clip-rule="evenodd" d="M193.663 121.694L169.588 138.825L169.051 138.07L193.127 120.94L193.663 121.694Z" fill="white"/>
<path fill-rule="evenodd" clip-rule="evenodd" d="M219.597 102.707L196.91 119.375L196.362 118.629L219.049 101.961L219.597 102.707Z" fill="white"/>
<path fill-rule="evenodd" clip-rule="evenodd" d="M243.672 84.6508L222.837 99.9295L222.29 99.1828L243.124 83.9041L243.672 84.6508Z" fill="white"/>
<path fill-rule="evenodd" clip-rule="evenodd" d="M266.818 67.5221L246.91 81.8749L246.368 81.1237L266.277 66.771L266.818 67.5221Z" fill="white"/>
<path fill-rule="evenodd" clip-rule="evenodd" d="M266.818 69.3742L246.91 83.7269L246.368 82.9758L266.277 68.623L266.818 69.3742Z" fill="white"/>
<path fill-rule="evenodd" clip-rule="evenodd" d="M243.672 86.5026L222.837 101.781L222.29 101.035L243.124 85.7559L243.672 86.5026Z" fill="white"/>
<path fill-rule="evenodd" clip-rule="evenodd" d="M219.597 104.559L196.91 121.227L196.362 120.481L219.049 103.813L219.597 104.559Z" fill="white"/>
<path fill-rule="evenodd" clip-rule="evenodd" d="M193.663 124.009L169.588 141.14L169.051 140.385L193.127 123.255L193.663 124.009Z" fill="white"/>
<path d="M98.9446 72.7025L201.266 7.42065" stroke="white"/>
<path fill-rule="evenodd" clip-rule="evenodd" d="M204.97 8.80974L103.111 74.5546L101.934 74.1658L203.793 8.4209L204.97 8.80974Z" fill="white"/>
<path fill-rule="evenodd" clip-rule="evenodd" d="M214.482 12.9019L112.624 79.1098L112.119 78.3334L213.304 12.5137L214.482 12.9019Z" fill="white"/>
<path d="M217.471 14.3657L116.075 80.5736" stroke="white"/>
<path fill-rule="evenodd" clip-rule="evenodd" d="M227.657 18.5326L126.517 85.5894L126.005 84.8178L226.475 18.147L227.657 18.5326Z" fill="white"/>
<path fill-rule="evenodd" clip-rule="evenodd" d="M129.039 86.5924L229.713 19.0742L230.229 19.843L130.223 86.9769L129.039 86.5924Z" fill="white"/>
<path d="M138.299 90.7594L238.305 23.1626" stroke="white"/>
<path fill-rule="evenodd" clip-rule="evenodd" d="M141.743 92.2284L241.286 24.6316L242.472 25.0146L142.263 92.9945L141.743 92.2284Z" fill="white"/>
<path d="M153.578 97.7042L252.658 29.1814" stroke="white"/>
<path d="M255.899 30.5703L157.282 99.5561" stroke="white"/>
<path d="M170.708 17.6067L179.505 21.2813M243.861 48.1642L235.527 44.6829M232.286 43.3291L221.175 38.6875M217.471 37.1403L209.137 33.659M205.896 32.3052L196.173 28.2438M192.469 26.6966L182.746 22.6351" stroke="white"/>
<path fill-rule="evenodd" clip-rule="evenodd" d="M176.085 23.7869L166.825 19.885L167.93 19.4585L176.444 22.9336L176.085 23.7869ZM189.048 29.2497L179.325 25.1526L179.685 24.2993L189.408 28.3963L189.048 29.2497ZM202.475 34.9075L192.752 30.8104L193.112 29.9571L202.835 34.0542L202.475 34.9075ZM214.071 39.7937L205.281 36.0897L205.64 35.2364L214.43 38.9403L214.071 39.7937ZM228.403 45.8329L217.754 41.3457L218.113 40.4924L229.508 45.3861L228.403 45.8329ZM240.44 50.9055L232.107 47.3937L232.466 46.5404L240.8 50.0521L240.44 50.9055Z" fill="white"/>
<path d="M145.244 32.8853L154.967 36.9664M220.249 64.3687L212.378 61.0649M208.674 59.5102L197.562 54.8459M193.776 53.2569L185.061 49.5987M181.82 48.2383L171.716 43.9971M167.931 42.408L158.208 38.3268" stroke="white"/>
<path d="M142.003 35.2002L151.263 39.1687M216.545 67.1466L208.674 63.7734M154.504 40.5577L164.69 44.923M168.393 46.5104L178.116 50.6774M181.357 52.0663L190.154 55.8364M193.858 57.4238L205.201 62.2852" stroke="white"/>
<path fill-rule="evenodd" clip-rule="evenodd" d="M127.926 54.2712L118.203 49.9764L118.577 49.1294L128.3 53.4241L127.926 54.2712ZM141.263 60.1623L131.63 55.9073L132.004 55.0602L141.637 59.3152L141.263 60.1623ZM155.242 66.3374L145.057 61.8381L145.431 60.9911L155.617 65.4903L155.242 66.3374ZM167.28 71.6547L158.483 67.769L158.858 66.9219L167.654 70.8076L167.28 71.6547ZM182.328 78.3013L170.984 73.2908L171.358 72.4437L182.702 77.4543L182.328 78.3013ZM193.671 83.3119L185.8 79.8351L186.174 78.9881L194.784 82.8885L193.671 83.3119Z" fill="white"/>
<path fill-rule="evenodd" clip-rule="evenodd" d="M124.051 56.9224L113.76 52.3311L114.872 51.9067L124.421 56.0737L124.051 56.9224ZM137.188 62.6551L127.928 58.6144L128.298 57.7657L137.558 61.8063L137.188 62.6551ZM151.541 68.9181L141.355 64.4733L141.725 63.6246L151.911 68.0694L151.541 68.9181ZM163.308 74.0531L154.82 70.3491L155.191 69.5004L163.679 73.2044L163.308 74.0531ZM178.394 80.636L167.282 75.7872L167.653 74.9385L178.765 79.7873L178.394 80.636ZM190.154 85.6665L182.407 82.3869L182.777 81.5382L191.265 85.2422L190.154 85.6665Z" fill="white"/>
<path fill-rule="evenodd" clip-rule="evenodd" d="M120.705 12.9767L16.3094 76.3395L14.6802 76.4066L119.539 12.5811L120.705 12.9767Z" fill="white"/>
<path fill-rule="evenodd" clip-rule="evenodd" d="M21.625 75.0176L125.557 11.6555L126.039 12.4461L22.7921 75.413L21.625 75.0176Z" fill="white"/>
<path fill-rule="evenodd" clip-rule="evenodd" d="M134.595 11.1246L29.9588 74.5545L28.7927 74.1584L133.429 10.7285L134.595 11.1246Z" fill="white"/>
<path d="M139.225 10.1987L36.4407 73.1656" stroke="white"/>
<path fill-rule="evenodd" clip-rule="evenodd" d="M146.412 9.66704L44.7745 72.2396L43.606 71.8453L145.927 8.87842L146.412 9.66704Z" fill="white"/>
<path fill-rule="evenodd" clip-rule="evenodd" d="M49.8674 70.8506L150.556 8.41631L152.189 8.34668L51.0374 71.2441L49.8674 70.8506Z" fill="white"/>
<path fill-rule="evenodd" clip-rule="evenodd" d="M160.986 7.42084L58.4435 70.3193L57.9592 69.53L159.817 7.02612L160.986 7.42084Z" fill="white"/>
<path fill-rule="evenodd" clip-rule="evenodd" d="M62.8313 68.9987L164.447 6.56348L165.616 6.95774L63.9998 69.3933L62.8313 68.9987Z" fill="white"/>
<path fill-rule="evenodd" clip-rule="evenodd" d="M173.486 5.56885L71.8713 68.4668L71.3848 67.679L171.854 5.63803L173.486 5.56885Z" fill="white"/>
<path fill-rule="evenodd" clip-rule="evenodd" d="M77.4033 66.7532L177.19 5.03646L178.823 5.03652L77.8908 67.5405L77.4033 66.7532Z" fill="white"/>
<path fill-rule="evenodd" clip-rule="evenodd" d="M107.807 52.3262L100.399 53.3911L100.797 52.3309L107.675 51.4097L107.807 52.3262ZM94.8435 54.1898L86.5096 55.3878L87.8328 54.1829L94.7117 53.2732L94.8435 54.1898ZM81.1295 56.1612L73.2711 57.2908L74.869 56.0348L82.2769 55.1089L81.1295 56.1612ZM67.6772 58.0949L60.1191 59.1814L59.9873 58.2648L67.5455 57.1784L67.6772 58.0949ZM53.4391 60.1416L45.7005 61.1278L46.0975 60.2615L53.5714 59.2758L53.4391 60.1416ZM39.6816 62.0537L33.7285 62.975L34.5887 62.0537L39.8472 61.16L39.6816 62.0537Z" fill="white"/>
<path fill-rule="evenodd" clip-rule="evenodd" d="M107.465 48.1867L114.159 47.2427L114.288 48.1596L107.594 49.1036L107.465 48.1867ZM94.3148 50.0161L102.186 49.0901L101.503 49.9626L93.4535 51.0978L94.3148 50.0161ZM80.3604 52.0091L88.7589 50.9421L88.3605 51.816L80.4897 52.926L80.3604 52.0091ZM67.1772 53.8683L74.681 52.926L74.4708 53.7748L67.3065 54.7852L67.1772 53.8683ZM53.0438 55.8615L60.9147 54.7515L61.044 55.6684L53.1731 56.7784L53.0438 55.8615ZM41.932 57.4285L47.2053 56.7784L47.0011 57.6488L41.5337 58.35L41.932 57.4285Z" fill="white"/>
<path fill-rule="evenodd" clip-rule="evenodd" d="M135.123 35.6586L127.715 36.7033L127.585 35.7864L134.993 34.7417L135.123 35.6586ZM121.527 37.5759L113.699 38.6799L114.686 37.5151L122.557 36.5891L121.527 37.5759ZM108.732 39.3804L100.156 40.5898L101.26 39.3671L108.603 38.4634L108.732 39.3804ZM94.3726 41.4307L86.9068 42.3158L87.5622 41.4307L94.9209 40.3929L94.3726 41.4307ZM81.4156 43.2327L73.7194 44.318L73.5901 43.4011L81.2863 42.3158L81.4156 43.2327ZM67.6531 45.1736L61.9053 45.849L62.7666 44.9275L67.5238 44.2566L67.6531 45.1736Z" fill="white"/>
<path fill-rule="evenodd" clip-rule="evenodd" d="M133.146 32.4083L140.091 31.5005L140.211 32.4187L132.743 33.3484L133.146 32.4083ZM119.719 34.1634L128.576 32.8854L127.067 34.1368L119.839 35.0816L119.719 34.1634ZM106.292 35.9186L114.626 34.8292L114.746 35.7474L106.412 36.8368L106.292 35.9186ZM94.2545 37.4921L101.723 36.5893L100.856 37.563L93.3887 38.4413L94.2545 37.4921ZM80.3647 39.3078L89.6847 37.9783L87.8926 39.2576L80.4848 40.226L80.3647 39.3078ZM69.2529 40.7603L75.795 39.8303L74.0029 41.0733L69.373 41.6785L69.2529 40.7603Z" fill="white"/>
<path fill-rule="evenodd" clip-rule="evenodd" d="M160.06 20.3846L152.249 21.4702L152.129 20.552L160.463 19.4626L160.06 20.3846ZM146.23 22.257L139.079 23.1917L138.959 22.2736L147.096 21.3105L146.23 22.257ZM133.997 23.856L125.164 25.0107L126.42 23.856L133.877 22.9378L133.997 23.856ZM120.302 25.6462L113.357 26.554L113.237 25.6359L120.182 24.728L120.302 25.6462ZM107.801 27.2803L99.9306 28.3092L99.8106 27.391L107.681 26.3621L107.801 27.2803ZM94.1796 29.0609L88.2959 29.6444L89.6247 28.7225L94.0595 28.1428L94.1796 29.0609Z" fill="white"/>
<path fill-rule="evenodd" clip-rule="evenodd" d="M157.689 17.1219L165.615 16.2175L165.208 17.1401L157.8 18.0411L157.689 17.1219ZM145.023 18.6623L152.133 17.7976L152.245 18.7168L144.318 19.4585L145.023 18.6623ZM131.817 20.3845L139.878 19.288L139.99 20.2072L131.41 21.2507L131.817 20.3845ZM119.415 21.7768L127.187 20.8474L126.317 21.8702L119.526 22.696L119.415 21.7768ZM106.76 23.316L114.167 22.415L114.279 23.3342L104.5 24.5514L106.76 23.316ZM96.5738 24.5548L100.741 24.048L100.852 24.9672L95.7036 25.4774L96.5738 24.5548Z" fill="white"/>
<path fill-rule="evenodd" clip-rule="evenodd" d="M33.9902 71.44V68.0622L34.9162 67.5414V70.9497L33.9902 71.44ZM31.6752 72.6656V69.3644L30.7492 69.8853V73.1558L31.6752 72.6656ZM30.7492 77.8413L31.6752 77.6951V83.031L30.7492 82.895V77.8413ZM33.9902 77.3296L34.9162 77.1834V83.5073L33.9902 83.3712V77.3296ZM34.9162 64.503L33.9902 65.0238V62.5167L34.9162 62.0537V64.503ZM30.7492 66.8469L31.6752 66.326V64.3687L30.7492 64.8317V66.8469ZM31.6752 86.2423V123.332L31.5396 123.659L30.941 124.258H34.7244L33.9902 123.332V86.573L34.9162 86.7053V123.14L36.1695 124.394L35.8421 125.184H29.8232L29.4958 124.394L30.7492 123.14V86.11L31.6752 86.2423Z" fill="white"/>
<path fill-rule="evenodd" clip-rule="evenodd" d="M62.6958 88.4009V73.6988L63.6217 73.5526V88.5398L62.6958 88.4009ZM60.3808 88.0536V74.0643L59.4548 74.2105V87.9147L60.3808 88.0536ZM63.6217 66.5575L62.6958 67.0783V63.4742L63.6217 62.9084V66.5575ZM63.6217 60.0551L62.6958 60.6339V58.268L63.6217 58.0365V60.0551ZM62.6958 50.6372V54.0886L63.6217 53.5835V50.1321L62.6958 50.6372ZM62.6958 47.6644V44.9232L63.6217 44.4602V47.1243L62.6958 47.6644ZM60.3808 49.0148L59.4548 49.555V47.2382L60.3808 46.7752V49.0148ZM59.4548 51.9918L59.5904 52.331L60.3808 51.8999V55.3513L59.4548 55.8564V51.9918ZM60.3808 58.8468L59.4548 59.0783V62.6595L60.3808 62.0807V58.8468ZM59.4548 65.4548V68.9014L60.3808 68.3805V64.889L59.4548 65.4548ZM60.3808 90.8316V105.739L60.2452 106.066L59.6466 106.665H63.4299L62.6958 105.739V91.1788L63.6217 91.3177V105.547L64.8751 106.8L64.5477 107.591H58.5288L58.2014 106.8L59.4548 105.547V90.6927L60.3808 90.8316Z" fill="white"/>
<path fill-rule="evenodd" clip-rule="evenodd" d="M89.5493 31.2668V28.7184L90.4753 28.2554V30.7267L89.5493 31.2668ZM87.2343 42.0414V45.434L86.3083 46.0038V42.597L87.2343 42.0414ZM89.5493 41.437V44.0094L90.4753 43.4395V41.3047L89.5493 41.437ZM90.4753 37.2262L89.5493 37.7818V33.9292L90.4753 33.2952V37.2262ZM87.2343 38.7733L86.907 38.9042L86.3083 39.1038V36.1481L87.2343 35.5142V38.7733ZM86.3083 48.6037L87.2343 48.0339V51.5567L86.3083 51.689V48.6037ZM89.5493 46.6093V50.5695L90.4753 49.9521V46.0394L89.5493 46.6093ZM86.907 54.6459L87.2343 54.6132V58.2747L86.3083 58.8149V55.0451L86.907 54.6459ZM89.5493 54.3817V56.9243L90.4753 56.3841V54.2891L89.5493 54.3817ZM86.3083 61.5675L87.2343 60.9976V64.4042L86.3083 65.0408V61.5675ZM89.5493 59.573V62.8126L90.4753 62.176V59.0032L89.5493 59.573ZM89.5493 67.4279V68.6666L90.4753 69.037V66.9134L89.5493 67.4279ZM87.2343 87.2188V72.5122L86.3083 72.1154V87.027L85.0549 88.2804L85.3823 89.0708H91.4012L91.7286 88.2804L90.4753 87.0271V73.9012L89.5493 73.5043V87.2188L90.2835 88.1448H86.5001L87.0987 87.5462L87.2343 87.2188ZM87.2343 32.6172V30.5703L86.3083 31.0333V33.1574L87.2343 32.6172Z" fill="white"/>
<path fill-rule="evenodd" clip-rule="evenodd" d="M115.477 30.7567V34.6733L116.403 34.0559V30.1614L115.477 30.7567ZM113.162 32.2449V35.3908L112.236 35.5066V32.8401L113.162 32.2449ZM115.477 28.0895L116.403 27.5196V25.9404H115.477V28.0895ZM115.477 22.0727L116.403 21.6098V17.6606L115.477 18.2559V22.0727ZM115.477 15.5887V13.4396L116.403 12.9766V15.0188L115.477 15.5887ZM113.162 17.0133L112.236 17.5831V15.2915L113.162 14.8285V17.0133ZM112.236 20.3394L113.162 19.7441V22.8764L112.236 23.0307V20.3394ZM112.236 30.0839V26.5773L113.162 26.0217V29.5141L112.236 30.0839ZM113.162 38.5848L112.236 39.1139V42.8086L113.162 42.2299V38.5848ZM112.236 47.985V45.8256L113.162 45.2558V47.8527L112.236 47.985ZM115.477 46.7864V43.8312L116.403 43.2614V46.2572L115.477 46.7864ZM116.403 37.842V40.2042L115.477 40.783V37.8999L116.403 37.842ZM115.477 52.3423L116.403 52.8979V61.4937L115.477 62.0956V52.3423ZM115.477 65.9959L116.403 65.4227V70.3593L117.656 71.6126L117.329 72.403H111.31L110.982 71.6126L112.236 70.3592V68.0023L113.162 67.429V70.551L113.026 70.8784L112.428 71.477H116.211L115.477 70.551V65.9959ZM113.162 63.6003L112.236 64.2022V53.3995L113.162 52.8208V63.6003Z" fill="white"/>
<path fill-rule="evenodd" clip-rule="evenodd" d="M31.3479 96.1943L5.20324 112.449L4.71141 111.665L31.3479 95.1258V96.1943ZM47.7778 85.9792L60.0534 78.3471V77.3023L46.5148 85.7086L47.7778 85.9792ZM44.4079 88.0744L42.9759 87.9059L34.1259 93.401V94.4671L44.4079 88.0744ZM45.4933 85.4897L60.0534 76.4903V75.3753L44.1628 85.2046L45.4933 85.4897ZM40.3039 87.5916L41.8067 87.7684L34.1259 92.5158V91.4131L40.3039 87.5916ZM68.3873 73.1656L62.8314 76.6199V75.5774L67.4613 72.7026L68.3873 73.1656ZM64.6833 73.6286L62.8314 74.7733V73.6569L63.5149 73.2341L64.6833 73.6286ZM31.3479 93.1314L4.49438 109.742L4.979 110.531L31.3479 94.2328V93.1314Z" fill="white"/>
</svg>
