<svg width="81" height="76" viewBox="0 0 81 76" fill="none" xmlns="http://www.w3.org/2000/svg">
<mask id="path-1-inside-1_235_261" fill="white">
<path d="M13.6989 16.1229C19.0932 8.97876 26.9557 4.10063 35.7523 2.44035C44.5489 0.78007 53.6485 2.45676 61.2757 7.14325C68.9029 11.8297 74.5104 19.1898 77.0041 27.7874C79.4978 36.385 78.6988 45.6032 74.763 53.6435C70.8272 61.6838 64.0369 67.9693 55.7171 71.2736C47.3974 74.5779 38.1449 74.6639 29.7652 71.5148C21.3854 68.3658 14.4795 62.2076 10.3949 54.2418C6.31036 46.2761 5.34015 37.0743 7.67361 28.4318L8.54094 28.666C6.26571 37.0928 7.21171 46.0649 11.1944 53.8319C15.177 61.5989 21.9106 67.6034 30.0812 70.6739C38.2518 73.7443 47.2734 73.6605 55.3855 70.4387C63.4977 67.2168 70.1185 61.0882 73.9561 53.2486C77.7936 45.4089 78.5727 36.4207 76.1412 28.0377C73.7098 19.6546 68.2422 12.4782 60.8054 7.90869C53.3685 3.33915 44.496 1.70431 35.9189 3.32316C27.3418 4.942 19.6755 9.69839 14.4159 16.6643L13.6989 16.1229Z"/>
</mask>
<path d="M13.6989 16.1229C19.0932 8.97876 26.9557 4.10063 35.7523 2.44035C44.5489 0.78007 53.6485 2.45676 61.2757 7.14325C68.9029 11.8297 74.5104 19.1898 77.0041 27.7874C79.4978 36.385 78.6988 45.6032 74.763 53.6435C70.8272 61.6838 64.0369 67.9693 55.7171 71.2736C47.3974 74.5779 38.1449 74.6639 29.7652 71.5148C21.3854 68.3658 14.4795 62.2076 10.3949 54.2418C6.31036 46.2761 5.34015 37.0743 7.67361 28.4318L8.54094 28.666C6.26571 37.0928 7.21171 46.0649 11.1944 53.8319C15.177 61.5989 21.9106 67.6034 30.0812 70.6739C38.2518 73.7443 47.2734 73.6605 55.3855 70.4387C63.4977 67.2168 70.1185 61.0882 73.9561 53.2486C77.7936 45.4089 78.5727 36.4207 76.1412 28.0377C73.7098 19.6546 68.2422 12.4782 60.8054 7.90869C53.3685 3.33915 44.496 1.70431 35.9189 3.32316C27.3418 4.942 19.6755 9.69839 14.4159 16.6643L13.6989 16.1229Z" stroke="#C09A5D" stroke-width="2" mask="url(#path-1-inside-1_235_261)"/>
<path d="M12.8906 36.7042L8.02625 27.967L1.00061 35.0832" stroke="#C09A5D"/>
<circle cx="42.2422" cy="37.4652" r="3" fill="#C09A5D"/>
<circle cx="74.2422" cy="37.4652" r="1" fill="#C09A5D"/>
<circle cx="42.2422" cy="69.4652" r="1" fill="#C09A5D"/>
<circle cx="58.2422" cy="64.4652" r="1" fill="#C09A5D"/>
<circle cx="24.2422" cy="64.4652" r="1" fill="#C09A5D"/>
<circle cx="70.2422" cy="52.4652" r="1" fill="#C09A5D"/>
<circle cx="14.2422" cy="52.4652" r="1" fill="#C09A5D"/>
<circle cx="58.2422" cy="9.46518" r="1" fill="#C09A5D"/>
<circle cx="70.2422" cy="22.4652" r="1" fill="#C09A5D"/>
<path fill-rule="evenodd" clip-rule="evenodd" d="M41.2422 18.9652L17.7227 18.9652L16.7227 17.9652L41.2422 17.9652V18.9652Z" fill="#C09A5D"/>
<path fill-rule="evenodd" clip-rule="evenodd" d="M41.2422 12.4652L17.2227 12.4652L16.2227 13.4652L41.2422 13.4652V12.4652Z" fill="#C09A5D"/>
<path fill-rule="evenodd" clip-rule="evenodd" d="M41.2422 30.9652L32.8105 30.9652L31.7227 29.9652L41.2422 29.9652V30.9652Z" fill="#C09A5D"/>
<path fill-rule="evenodd" clip-rule="evenodd" d="M41.2422 24.9652L25.8105 24.9652L24.7227 23.9652L41.2422 23.9652V24.9652Z" fill="#C09A5D"/>
<path fill-rule="evenodd" clip-rule="evenodd" d="M41.2422 6.46518L25.2227 6.46518L24.2227 7.46518L41.2422 7.46518V6.46518Z" fill="#C09A5D"/>
<path d="M41.2422 4.96518H43.2422" stroke="#C09A5D"/>
<path d="M41.2422 49V4.46518" stroke="#C09A5D"/>
<path d="M43.2422 49V4.46518" stroke="#C09A5D"/>
</svg>
