<svg width="78" height="85" viewBox="0 0 78 85" fill="none" xmlns="http://www.w3.org/2000/svg">
<path fill-rule="evenodd" clip-rule="evenodd" d="M70.6122 48.6481C71.2301 44.9406 71.527 41.2167 70.679 37.5549C69.8316 33.8961 68.2725 30.4399 66.0905 27.3832C66.0887 27.3807 66.0869 27.3782 66.0852 27.3757L66.8016 26.864C66.9699 27.0995 67.1346 27.3374 67.2956 27.5775C69.29 30.5505 70.7279 33.8639 71.5367 37.3563C72.3455 40.8487 72.0951 44.3878 71.6108 47.9349C71.5716 48.2213 71.5283 48.5073 71.4807 48.7929L70.6122 48.6481Z" fill="#C09A5D"/>
<path fill-rule="evenodd" clip-rule="evenodd" d="M23.5319 66.2326C26.4686 68.65 29.8526 70.4654 33.4909 71.5749C37.1291 72.6845 40.9503 73.0667 44.7362 72.6995L44.8222 73.5863L44.8181 73.5867C44.5313 73.6145 44.2444 73.6381 43.9574 73.6575C40.3393 73.9025 36.7042 73.4865 33.231 72.4272C29.7577 71.3679 26.5091 69.6846 23.6436 67.4622C23.4151 67.2851 23.1891 67.1045 22.9656 66.9205L23.5319 66.2326Z" fill="#C09A5D"/>
<path fill-rule="evenodd" clip-rule="evenodd" d="M32.6364 16.8896C29.0745 18.2241 25.8104 20.2471 23.0303 22.8431C20.2502 25.4392 18.0087 28.5573 16.4337 32.0196L15.6227 31.6507C15.6233 31.6494 15.6239 31.6482 15.6244 31.6469C15.7438 31.3847 15.8668 31.1244 15.9935 30.8661C17.5903 27.6102 19.7682 24.6702 22.4222 22.1919C25.0762 19.7136 28.1582 17.7419 31.5157 16.3715C31.7833 16.2622 32.0527 16.1568 32.3238 16.0552L32.6364 16.8896Z" fill="#C09A5D"/>
<path d="M52 1L41 7.11111V20.4912L52 26.6667L63 20.4912V7.11111L52 1Z" stroke="#C09A5D"/>
<path d="M41 7.11108L52 13.2222L63 7.11108" stroke="#C09A5D"/>
<path d="M52 13.2222V26.0555" stroke="#C09A5D"/>
<path d="M12 38L1 44.1111V57.4912L12 63.6667L23 57.4912V44.1111L12 38Z" stroke="#C09A5D"/>
<path d="M1 44.1111L12 50.2222L23 44.1111" stroke="#C09A5D"/>
<path d="M12 50.2222V63.0555" stroke="#C09A5D"/>
<path d="M66 54L55 60.1111V73.4912L66 79.6667L77 73.4912V60.1111L66 54Z" stroke="#C09A5D"/>
<path d="M55 60.1111L66 66.2222L77 60.1111" stroke="#C09A5D"/>
<path d="M66 66.2222V79.0555" stroke="#C09A5D"/>
<circle cx="42" cy="44" r="9.5" stroke="#C09A5D"/>
<path d="M43 37V45L37 47.5" stroke="#C09A5D"/>
</svg>
