<svg width="142" height="31" viewBox="0 0 142 31" fill="none" xmlns="http://www.w3.org/2000/svg">
<path fill-rule="evenodd" clip-rule="evenodd" d="M13.9736 3.79999L3.12743 8.9746V22.9143L0 24.4063V10.4667V6.66667L13.9736 0L27.947 6.66667V7.59999V22.9332V24.3333L13.9736 31V27.1999L24.8197 22.0254V18.7587L13.9736 23.9333V20.1334L24.8197 14.9587V11.9587L13.9736 17.1334V13.3333L23.9645 8.56666L13.9736 3.79999ZM80.2311 23.7103C81.3713 24.298 82.7126 24.5918 84.2551 24.5918C85.5797 24.5918 86.7364 24.3736 87.7257 23.937C88.715 23.4836 89.4779 22.8373 90.0144 21.9978C90.551 21.1583 90.8192 20.1677 90.8192 19.026C90.8192 18.3544 90.685 17.7501 90.4168 17.2127C90.1486 16.6587 89.7546 16.1718 89.2348 15.752C88.7317 15.3155 88.1113 14.9461 87.3736 14.6439C86.6526 14.3417 85.8311 14.0899 84.909 13.8884C84.3389 13.7709 83.8359 13.6366 83.4 13.4855C82.964 13.3343 82.6035 13.1581 82.3186 12.9566C82.0336 12.7551 81.8156 12.52 81.6646 12.2514C81.5306 11.9828 81.4634 11.689 81.4634 11.37C81.4634 10.9334 81.5891 10.5641 81.8407 10.2618C82.0923 9.94283 82.4359 9.69939 82.8719 9.53148C83.3245 9.34681 83.8527 9.25446 84.4563 9.25446C85.2612 9.25446 86.0072 9.45595 86.6945 9.8589C87.3821 10.2618 87.9773 10.8495 88.4803 11.6218L90.6431 9.5063C90.0563 8.51572 89.2431 7.7518 88.2036 7.21452C87.1809 6.67725 85.9317 6.40862 84.4563 6.40862C83.3162 6.40862 82.2684 6.62688 81.3127 7.06341C80.3737 7.49994 79.6192 8.10437 79.0491 8.8767C78.4957 9.63223 78.2192 10.5053 78.2192 11.4959C78.2192 12.2346 78.3281 12.8978 78.5461 13.4855C78.7809 14.0563 79.1246 14.5768 79.5773 15.0469C80.0467 15.5002 80.6168 15.8864 81.2874 16.2054C81.9749 16.5076 82.7881 16.751 83.727 16.9357C84.2132 17.0197 84.6574 17.1288 85.0598 17.2632C85.479 17.3806 85.8396 17.5234 86.1414 17.6913C86.46 17.8592 86.7198 18.0439 86.921 18.2453C87.139 18.43 87.2983 18.6482 87.3989 18.9001C87.5163 19.1351 87.575 19.3955 87.575 19.6808C87.575 20.1006 87.4408 20.47 87.1724 20.789C86.9042 21.0912 86.5353 21.3262 86.0659 21.4941C85.5963 21.662 85.0766 21.7459 84.5067 21.7459C83.5173 21.7459 82.6288 21.5361 81.8407 21.1163C81.0694 20.6799 80.2731 19.8824 79.4514 18.7239L77.3388 21.1414C78.1438 22.2665 79.1078 23.1226 80.2311 23.7103ZM67.1436 24.4909C65.7521 24.4909 64.5112 24.1971 63.4215 23.6094C62.3316 23.0051 61.4682 22.1824 60.8311 21.1413C60.2107 20.0836 59.9004 18.8917 59.9004 17.5652V6.68553H63.1699V17.3385C63.1699 18.1278 63.346 18.8328 63.6982 19.454C64.067 20.0753 64.5531 20.5705 65.1568 20.94C65.7604 21.2926 66.4226 21.4688 67.1436 21.4688C67.9149 21.4688 68.6107 21.2926 69.2311 20.94C69.8514 20.5705 70.346 20.0753 70.7148 19.454C71.0838 18.8328 71.2682 18.1278 71.2682 17.3385V6.68553H74.3867V17.5652C74.3867 18.8917 74.0681 20.0836 73.431 21.1413C72.8106 22.1824 71.9557 23.0051 70.8658 23.6094C69.7759 24.1971 68.5352 24.4909 67.1436 24.4909ZM42.6668 24.3396V6.71046H50.3374C51.3771 6.71046 52.3326 6.96232 53.2045 7.46599C54.0765 7.9529 54.7638 8.62449 55.2669 9.48077C55.7867 10.3202 56.0466 11.2688 56.0466 12.3266C56.0466 13.334 55.7867 14.2574 55.2669 15.0969C54.7638 15.9364 54.0765 16.608 53.2045 17.1116C53.0424 17.2071 52.8766 17.2936 52.7072 17.371L56.7507 24.3647L52.9028 24.3396L49.262 17.8671H45.8608V24.3396H42.6668ZM45.8608 14.9962H50.3627C50.8321 14.9962 51.2512 14.887 51.6202 14.6688C51.989 14.4337 52.2741 14.1231 52.4753 13.7369C52.6765 13.334 52.7771 12.889 52.7771 12.4021C52.7771 11.8481 52.6512 11.3696 52.3998 10.9666C52.1483 10.5637 51.7963 10.2447 51.3435 10.0096C50.8908 9.77458 50.371 9.65705 49.7843 9.65705H45.8608V14.9962ZM94.4647 24.34V6.71091H101.783C102.789 6.71091 103.695 6.95437 104.499 7.44127C105.321 7.92816 105.966 8.59136 106.436 9.43084C106.922 10.2703 107.165 11.2105 107.165 12.2515C107.165 13.2924 106.922 14.2411 106.436 15.0973C105.966 15.9368 105.321 16.6084 104.499 17.112C103.695 17.6157 102.789 17.8676 101.783 17.8676H97.7089V24.34H94.4647ZM97.7089 14.8707H101.557C101.993 14.8707 102.378 14.7532 102.714 14.5181C103.066 14.283 103.343 13.9724 103.544 13.5863C103.762 13.1833 103.871 12.7468 103.871 12.2767C103.871 11.7898 103.762 11.3532 103.544 10.9671C103.343 10.5809 103.066 10.2787 102.714 10.0604C102.378 9.84219 101.993 9.73305 101.557 9.73305H97.7089V14.8707ZM113.908 6.71091L107.042 24.34H110.287L111.821 20.2854H118.868L120.397 24.34H123.767L116.951 6.71091H113.908ZM117.805 17.4647L116.599 14.2663C116.532 14.0816 116.423 13.771 116.272 13.3344C116.138 12.8979 115.987 12.4194 115.82 11.8989C115.661 11.4066 115.51 10.9518 115.366 10.5346L115.342 10.6145C115.208 11.0343 115.065 11.4708 114.914 11.9241C114.763 12.3774 114.613 12.814 114.462 13.2337C114.311 13.6534 114.177 14.0312 114.059 14.367L112.888 17.4647H117.805ZM126.566 24.34V6.71091H129.483L139.044 19.5692C138.987 19.1181 138.936 18.6517 138.89 18.1699C138.822 17.2968 138.772 16.3482 138.739 15.324C138.705 14.2998 138.688 13.1833 138.688 11.9745V6.71091H141.907V24.34H138.94L129.391 11.7078C129.458 12.4108 129.514 13.0201 129.559 13.5359C129.626 14.2914 129.676 14.9126 129.71 15.3995C129.743 15.8865 129.76 16.2894 129.76 16.6084C129.777 16.9275 129.785 17.2296 129.785 17.5151V24.34H126.566Z" fill="#004289"/>
</svg>
