<svg width="68" height="71" viewBox="0 0 68 71" fill="none" xmlns="http://www.w3.org/2000/svg">
<path d="M52.9986 51.5C52.1652 51.8334 50.1985 52.4 48.9985 52C47.7985 51.6 41.1652 48.8334 37.9985 47.5C37.1652 47.1667 35.3005 46.9001 34.5003 48.5C33.5 50.4999 34.5004 52 35.4985 53L44.4988 57C45.3321 58.5 47.4988 61.8 49.4988 63C52.4998 64.8006 56.3321 64.1666 58.4988 64L62.4988 66M53.4998 42.5L61.9998 52.5C62.4999 53.1667 63.8 54.7 65 55.5C66.2 56.3 66.8333 56.8333 67.5 57" stroke="#C09A5D" stroke-linejoin="round"/>
<path d="M10 26H45" stroke="#C09A5D" stroke-linejoin="round"/>
<path d="M28 19L45 19" stroke="#C09A5D" stroke-linejoin="round"/>
<path d="M10 33H45" stroke="#C09A5D" stroke-linejoin="round"/>
<path d="M10 40H25" stroke="#C09A5D" stroke-linejoin="round"/>
<path d="M35.4998 53.5L33.4998 57.5C33.3331 58.3333 33.3998 60.1 34.9998 60.5C36.5998 60.9 37.6666 60.3333 38 60L40 55" stroke="#C09A5D" stroke-linejoin="round"/>
<path d="M38 60C38 60.5 38.1318 62.5439 39.5 63C41 63.5 42 63.5 43 62L45 57.5" stroke="#C09A5D" stroke-linejoin="round"/>
<path d="M28.5 51L31 55.5" stroke="#C09A5D" stroke-linejoin="round"/>
<path d="M54 64.5V70.2245H1V19.9286H19.3878V1H54V36.2437" stroke="#C09A5D"/>
<path d="M19.3867 1L0.998964 19.9286" stroke="#C09A5D"/>
<path d="M28.5 51L58 34L60.5 38L42.5 49" stroke="#C09A5D"/>
<path d="M35 53L31 55.5L25 56L29 50.5" stroke="#C09A5D" stroke-linejoin="round"/>
<path d="M48.0001 39.5C46.1667 39 42.5001 37.5001 40.5001 38C38.5001 38.5 32.996 42 29.4982 44C27.996 45.0271 26.0642 45.75 26.5001 47.5C26.9982 49.5 29.4982 49.5 31.998 49" stroke="#C09A5D" stroke-linejoin="round"/>
<path d="M6 59.0758C7.45161 58.9298 10.3433 58.2052 11.3226 57.762C12.2903 57.324 15.2964 55.4134 14.7097 53.8204C14.2258 52.5066 11.9032 52.857 10.3548 54.2584C8.41935 56.0102 7.93548 59.5137 9.3871 60.3896C10.8387 61.2654 12.7742 61.2654 13.2581 59.9516C13.7419 58.6378 15 58.5 15 58.5C15 58.5 15.6774 57.7619 16.1613 58.6378C16.5484 59.3385 16.8065 59.9516 17.129 59.9516C17.4516 60.0976 18.3069 59.819 18.5806 59.0758C19.0645 57.762 20.8387 57.4699 21 57.3239" stroke="#C09A5D" stroke-linejoin="round"/>
</svg>
