<svg width="72" height="72" viewBox="0 0 72 72" fill="none" xmlns="http://www.w3.org/2000/svg">
<path d="M35.6903 1L1 27.3934V71H71V27.3934L35.6903 1Z" stroke="#C09A5D"/>
<path d="M66 71V29.599L35.7345 7L6 29.599V71" stroke="#C09A5D"/>
<mask id="path-3-inside-1_92_1353" fill="white">
<path d="M41.1909 13.7479C40.2529 15.0411 39.5946 16.5157 39.2581 18.0775C38.9215 19.6393 38.9141 21.2541 39.2362 22.8189L40.2739 22.6053C39.9814 21.1846 39.9882 19.7186 40.2937 18.3006C40.5993 16.8827 41.1969 15.544 42.0486 14.3699L41.1909 13.7479Z"/>
</mask>
<path d="M41.1909 13.7479C40.2529 15.0411 39.5946 16.5157 39.2581 18.0775C38.9215 19.6393 38.9141 21.2541 39.2362 22.8189L40.2739 22.6053C39.9814 21.1846 39.9882 19.7186 40.2937 18.3006C40.5993 16.8827 41.1969 15.544 42.0486 14.3699L41.1909 13.7479Z" stroke="#C09A5D" stroke-width="2" mask="url(#path-3-inside-1_92_1353)"/>
<path d="M57.1188 39.3997C55.8598 41.0791 54.0987 42.3072 52.0978 42.9107L52.0864 42.8567C54.0696 42.2481 55.7502 40.9366 56.9802 39.2958C58.3188 37.5102 58.9968 35.3158 58.8988 33.0863C58.8007 30.8569 57.9327 28.7304 56.4426 27.0692C54.9525 25.408 52.9324 24.3149 50.7267 23.9761C48.521 23.6373 46.266 24.0738 44.3461 25.2112C42.4261 26.3486 40.9599 28.1166 40.1973 30.2138C39.4347 32.3111 39.4229 34.6079 40.1639 36.7128C40.8493 38.6602 42.1399 40.3319 43.8401 41.4875L43.7502 41.6358C42.0158 40.4593 40.6993 38.7555 40.0005 36.7703C39.2462 34.6276 39.2582 32.2895 40.0345 30.1546C40.8108 28.0197 42.3033 26.2201 44.2578 25.0622C46.2122 23.9044 48.5077 23.4601 50.753 23.8049C52.9983 24.1498 55.0546 25.2626 56.5715 26.9536C58.0884 28.6446 58.972 30.8092 59.0718 33.0787C59.1716 35.3482 58.4814 37.582 57.1188 39.3997Z" stroke="#C09A5D"/>
<path d="M40.0805 22.7274C41.9064 22.6426 43.7162 23.0693 45.3079 23.9545L45.216 24.1015C43.6542 23.2349 41.8793 22.8173 40.0886 22.9004C38.131 22.9912 36.2475 23.6762 34.6889 24.864C33.1303 26.0519 31.9705 27.6863 31.3638 29.5497C30.8168 31.2301 30.6118 33.0653 31.0173 34.8238L30.8511 34.8734C30.4454 33.1213 30.6265 31.255 31.1991 29.4961C31.8167 27.5993 32.9973 25.9355 34.5839 24.7263C36.1706 23.5171 38.0878 22.8198 40.0805 22.7274Z" stroke="#C09A5D"/>
<path d="M39.1541 42.2569C37.5076 42.0229 35.9504 41.375 34.6266 40.3775L34.7378 40.2445C36.0368 41.2214 37.564 41.856 39.1785 42.0854C40.7794 42.3129 42.2435 42.2112 43.7383 41.6469L43.8081 41.8057C42.3025 42.3758 40.8088 42.492 39.1541 42.2569Z" stroke="#C09A5D"/>
<path fill-rule="evenodd" clip-rule="evenodd" d="M51.322 33.1149C52.2314 32.0279 52.0875 30.4094 51.0004 29.4999C49.9134 28.5905 48.2949 28.7344 47.3854 29.8215C46.476 30.9085 46.6199 32.527 47.707 33.4365C48.794 34.3459 50.4125 34.202 51.322 33.1149ZM52.0889 33.7566C53.3528 32.246 53.1527 29.9968 51.6421 28.733C50.1315 27.4691 47.8823 27.6692 46.6185 29.1798C45.3546 30.6904 45.5547 32.9396 47.0653 34.2034C48.5759 35.4673 50.8251 35.2672 52.0889 33.7566Z" fill="#C09A5D"/>
<path d="M31.5 35L28 37.5L27 41L24 40.5L23 44L20 43.5L19 47L15.5 46.5L15 49.5V51.5L20 52L35 40" stroke="#C09A5D"/>
<path fill-rule="evenodd" clip-rule="evenodd" d="M43.4997 41.5001L44.4997 41.3122V45.3673L46.646 49.1234L44.1533 51.1175L45.6074 53.541L43.6074 56.041L45.1293 58.5776L42.6528 61.0541L44.6334 63.8269L48.0468 61.6936L51.5 42.5001L52.4843 42.6768L48.9527 62.3066L44.3661 65.1732L41.3467 60.946L43.8701 58.4226L42.3921 55.9592L44.3921 53.4592L42.8462 50.8826L45.3534 48.8768L43.4997 45.6329V41.5001Z" fill="#C09A5D"/>
<path fill-rule="evenodd" clip-rule="evenodd" d="M51.1571 10.0801C52.1228 10.141 53.0779 10.336 53.9946 10.6616C55.4073 11.1633 56.6953 11.9634 57.7712 13.0074C58.847 14.0514 59.6854 15.3149 60.2293 16.7119C60.7732 18.1088 61.01 19.6066 60.9233 21.1032C60.8367 22.5998 60.4288 24.0602 59.7274 25.3851C59.0259 26.71 58.0474 27.8683 56.8583 28.7813C55.6692 29.6942 54.2975 30.3404 52.8364 30.6758C51.3767 31.0109 49.862 31.0281 48.3951 30.7261L48.3908 30.7252L48.1768 31.7628C48.5043 31.8304 48.834 31.8835 49.1649 31.9222C50.468 32.0745 51.79 32.0031 53.0734 31.7084C54.6828 31.3389 56.1938 30.6272 57.5035 29.6216C58.8133 28.6161 59.8911 27.3402 60.6637 25.8809C61.4363 24.4215 61.8856 22.8129 61.981 21.1644C62.0764 19.5159 61.8157 17.8662 61.2166 16.3275C60.6174 14.7887 59.694 13.3971 58.509 12.2471C57.324 11.0972 55.9052 10.2159 54.3492 9.66323C53.1083 9.2225 51.8033 8.999 50.4914 9C50.2345 9.0002 49.9773 9.00901 49.7203 9.02648L51.1571 10.0801Z" fill="#C09A5D"/>
</svg>
