<svg width="165" height="36" viewBox="0 0 165 36" fill="none" xmlns="http://www.w3.org/2000/svg">
<path fill-rule="evenodd" clip-rule="evenodd" d="M16.2274 4.4129L3.63185 10.4221V26.6101L0 28.3428V12.1548V7.74194L16.2274 0L32.4546 7.74194V8.82579V26.6322V28.2581L16.2274 36V31.587L28.8228 25.5779V21.7842L16.2274 27.7935V23.3807L28.8228 17.3714V13.8875L16.2274 19.8968V15.4839L27.8298 9.94838L16.2274 4.4129ZM93.1743 27.5345C94.4986 28.217 96.0562 28.5582 97.8474 28.5582C99.3857 28.5582 100.729 28.3048 101.878 27.7978C103.027 27.2713 103.913 26.5208 104.536 25.5458C105.159 24.5709 105.47 23.4205 105.47 22.0947C105.47 21.3148 105.314 20.613 105.003 19.989C104.691 19.3456 104.234 18.7801 103.63 18.2927C103.046 17.7858 102.326 17.3568 101.469 17.0059C100.632 16.6549 99.6776 16.3624 98.6068 16.1285C97.9447 15.992 97.3606 15.836 96.8544 15.6605C96.3481 15.485 95.9295 15.2803 95.5985 15.0463C95.2676 14.8124 95.0145 14.5394 94.8391 14.2275C94.6835 13.9155 94.6055 13.5743 94.6055 13.2038C94.6055 12.6969 94.7515 12.2679 95.0436 11.917C95.3358 11.5465 95.7349 11.2638 96.2411 11.0688C96.7667 10.8544 97.3801 10.7471 98.081 10.7471C99.0158 10.7471 99.8821 10.9811 100.68 11.449C101.479 11.917 102.17 12.5994 102.754 13.4963L105.266 11.0396C104.584 9.88923 103.64 9.00208 102.433 8.37815C101.245 7.75422 99.7945 7.44227 98.081 7.44227C96.757 7.44227 95.5402 7.69573 94.4304 8.20267C93.34 8.70961 92.4638 9.41153 91.8017 10.3084C91.1591 11.1858 90.838 12.1997 90.838 13.3501C90.838 14.208 90.9645 14.9781 91.2176 15.6605C91.4903 16.3235 91.8894 16.9279 92.4152 17.4738C92.9602 18.0002 93.6223 18.4487 94.401 18.8191C95.1994 19.1701 96.1438 19.4528 97.2342 19.6673C97.7987 19.7648 98.3147 19.8915 98.7819 20.0476C99.2687 20.1839 99.6875 20.3497 100.038 20.5447C100.408 20.7397 100.71 20.9542 100.943 21.1881C101.196 21.4026 101.381 21.656 101.498 21.9485C101.635 22.2214 101.703 22.5238 101.703 22.8551C101.703 23.3426 101.547 23.7716 101.235 24.1421C100.924 24.493 100.495 24.7659 99.9503 24.9609C99.405 25.1559 98.8014 25.2533 98.1395 25.2533C96.9907 25.2533 95.9588 25.0096 95.0436 24.5222C94.1479 24.0154 93.2232 23.0892 92.269 21.7438L89.8156 24.5514C90.7504 25.8578 91.8699 26.8521 93.1743 27.5345ZM77.979 28.4413C76.363 28.4413 74.922 28.1001 73.6566 27.4177C72.3909 26.7159 71.3882 25.7605 70.6483 24.5515C69.9279 23.3232 69.5676 21.939 69.5676 20.3986V7.76414H73.3644V20.1354C73.3644 21.0519 73.5689 21.8707 73.9779 22.592C74.4061 23.3135 74.9707 23.8886 75.6718 24.3177C76.3727 24.7272 77.1417 24.9318 77.979 24.9318C78.8747 24.9318 79.6827 24.7272 80.4031 24.3177C81.1235 23.8886 81.698 23.3135 82.1262 22.592C82.5547 21.8707 82.7688 21.0519 82.7688 20.1354V7.76414H86.3903V20.3986C86.3903 21.939 86.0204 23.3232 85.2804 24.5515C84.5601 25.7605 83.5672 26.7159 82.3016 27.4177C81.0359 28.1001 79.5951 28.4413 77.979 28.4413ZM49.551 28.2654V7.79286H58.4587C59.6661 7.79286 60.7758 8.08533 61.7883 8.67025C62.8009 9.23568 63.599 10.0156 64.1833 11.01C64.7869 11.9849 65.0887 13.0865 65.0887 14.3148C65.0887 15.4847 64.7869 16.5571 64.1833 17.5319C63.599 18.5068 62.8009 19.2867 61.7883 19.8716C61.6 19.9825 61.4075 20.0829 61.2107 20.1728L65.9064 28.2946L61.4379 28.2654L57.2099 20.749H53.2601V28.2654H49.551ZM53.2601 17.4149H58.4881C59.0332 17.4149 59.5199 17.2882 59.9484 17.0347C60.3767 16.7618 60.7078 16.4011 60.9415 15.9526C61.1751 15.4847 61.2919 14.968 61.2919 14.4025C61.2919 13.7591 61.1457 13.2035 60.8538 12.7355C60.5616 12.2676 60.1529 11.8971 59.6271 11.6241C59.1013 11.3512 58.4978 11.2147 57.8164 11.2147H53.2601V17.4149ZM109.703 28.266V7.79348H118.202C119.37 7.79348 120.422 8.07621 121.356 8.64165C122.31 9.20706 123.06 9.97723 123.605 10.9521C124.17 11.927 124.452 13.0189 124.452 14.2277C124.452 15.4366 124.17 16.5382 123.605 17.5326C123.06 18.5074 122.31 19.2873 121.356 19.8722C120.422 20.4571 119.37 20.7496 118.202 20.7496H113.47V28.266H109.703ZM113.47 17.2694H117.939C118.445 17.2694 118.893 17.1329 119.283 16.8599C119.692 16.5869 120.013 16.2262 120.246 15.7778C120.5 15.3098 120.626 14.8029 120.626 14.257C120.626 13.6915 120.5 13.1846 120.246 12.7361C120.013 12.2877 119.692 11.9367 119.283 11.6833C118.893 11.4298 118.445 11.3031 117.939 11.3031H113.47V17.2694ZM132.284 7.79348L124.311 28.266H128.078L129.859 23.5574H138.044L139.819 28.266H143.733L135.818 7.79348H132.284ZM136.809 20.2817L135.409 16.5674C135.331 16.3529 135.205 15.9922 135.029 15.4853C134.874 14.9784 134.698 14.4227 134.504 13.8183C134.32 13.2465 134.144 12.7184 133.977 12.2339L133.949 12.3267C133.793 12.8141 133.627 13.3211 133.452 13.8475C133.277 14.374 133.102 14.8809 132.927 15.3683C132.751 15.8558 132.596 16.2945 132.459 16.6844L131.099 20.2817H136.809ZM146.981 28.266V7.79348H150.369L161.471 22.7257C161.405 22.2018 161.346 21.6602 161.292 21.1007C161.214 20.0867 161.156 18.9851 161.117 17.7958C161.078 16.6064 161.058 15.3098 161.058 13.906V7.79348H164.797V28.266H161.35L150.261 13.5963C150.34 14.4127 150.405 15.1203 150.457 15.7193C150.534 16.5967 150.593 17.3181 150.632 17.8835C150.671 18.449 150.69 18.9169 150.69 19.2873C150.71 19.6579 150.719 20.0088 150.719 20.3403V28.266H146.981Z" fill="#004289"/>
</svg>
