<svg width="76" height="76" viewBox="0 0 76 76" fill="none" xmlns="http://www.w3.org/2000/svg">
<path d="M6 65L8.02328 56.9411C8.45219 54.8017 8.8811 51.3787 10.5968 49.6673C12.3124 47.9558 15.5333 46.6722 18.5357 45.3886L20.8571 43.6947L21.7485 42.8214V41.1099C21.4625 40.8246 20.8906 40.682 20.4617 39.8263C20.0328 38.9705 20.0328 38.2574 20.0328 37.6869C19.8898 37.5443 19.5181 37.259 19.175 37.259C18.8319 37.259 18.3172 36.4033 18.3172 35.5476C18.3172 34.6918 18.3172 34.0928 18.3172 33.4082C18.3172 32.7236 18.889 32.2672 19.175 32.1246C19.175 32.1246 18.3172 29.5574 18.3172 28.2738C18.3172 26.9902 18.3172 25.7066 18.7461 24.8508C19.175 23.9951 20.3187 23.282 20.8906 23.1393C20.8906 22.7115 21.1652 22.2613 21.7485 21.8557C22.3317 21.4502 24.3219 21 26.0376 21C27.7532 21 30.7556 21.8557 32.0423 23.9951C33.0717 25.7066 32.7572 30.1279 32.4712 32.1246C32.4712 32.1246 32.9002 32.1246 33.3291 32.5525C33.758 32.9804 33.6722 33.4082 33.3291 35.1197C32.9859 36.8312 32.0423 37.5443 31.6134 37.6869C31.6134 38.1148 31.5276 39.1417 31.1845 39.8263C30.8414 40.5109 30.1837 40.9673 29.8978 41.1099V43.2492L31.1845 44.5328L32.4712 45.3886C34.7588 46.2443 39.677 48.2125 41.0495 49.2394C42.422 50.2663 42.7651 52.5197 42.7651 53.5181L45 65" stroke="#C09A5D"/>
<path d="M51 6.5V6C51 3.23858 48.7614 1 46 1H6C3.23858 1 1 3.23858 1 6V70C1 72.7614 3.23858 75 6 75H46C48.7614 75 51 72.7614 51 70V43" stroke="#C09A5D"/>
<path d="M50 30H46C43.2386 30 41 27.7614 41 25V11C41 8.23858 43.2386 6 46 6H70C72.7614 6 75 8.23858 75 11V25C75 27.7614 72.7614 30 70 30H61.5" stroke="#C09A5D"/>
<line x1="1" y1="65.5" x2="51" y2="65.5" stroke="#C09A5D"/>
<line x1="1" y1="9.5" x2="41" y2="9.5" stroke="#C09A5D"/>
<line x1="48" y1="15.5" x2="68" y2="15.5" stroke="#C09A5D"/>
<line x1="48" y1="21.5" x2="68" y2="21.5" stroke="#C09A5D"/>
<path fill-rule="evenodd" clip-rule="evenodd" d="M46.5162 40.8738L49.5 29.5H50.5L47.839 39.7647L61.5 29.5H63L47.2957 41.4032C47.1251 41.5283 46.8942 41.5325 46.7191 41.4136C46.5441 41.2947 46.4628 41.0785 46.5162 40.8738Z" fill="#C09A5D"/>
</svg>
