<svg width="60" height="74" viewBox="0 0 60 74" fill="none" xmlns="http://www.w3.org/2000/svg">
<rect x="0.5" y="3.5" width="55" height="67" rx="7.5" stroke="#C09A5D"/>
<rect x="5.5" y="8.5" width="45" height="57" rx="4.5" stroke="#C09A5D"/>
<rect x="15.5" y="0.5" width="25" height="12" fill="white" stroke="#C09A5D"/>
<circle cx="45.5" cy="59.5" r="14" fill="white" stroke="#C09A5D"/>
<path d="M39 59.5L45 65.5L52.5 55.5" stroke="#C09A5D"/>
<line x1="12" y1="20.5" x2="31" y2="20.5" stroke="#C09A5D"/>
<line x1="38" y1="20.5" x2="44" y2="20.5" stroke="#C09A5D"/>
<line x1="12" y1="27.5" x2="26" y2="27.5" stroke="#C09A5D"/>
<line x1="38" y1="27.5" x2="44" y2="27.5" stroke="#C09A5D"/>
<line x1="12" y1="34.5" x2="33" y2="34.5" stroke="#C09A5D"/>
<line x1="12" y1="56.5" x2="24" y2="56.5" stroke="#C09A5D"/>
<line x1="12" y1="43.5" x2="15" y2="43.5" stroke="#C09A5D"/>
<line x1="18" y1="43.5" x2="21" y2="43.5" stroke="#C09A5D"/>
<line x1="24" y1="43.5" x2="27" y2="43.5" stroke="#C09A5D"/>
<line x1="30" y1="43.5" x2="33" y2="43.5" stroke="#C09A5D"/>
<line x1="38" y1="34.5" x2="44" y2="34.5" stroke="#C09A5D"/>
</svg>
