<svg width="74" height="74" viewBox="0 0 74 74" fill="none" xmlns="http://www.w3.org/2000/svg">
<path d="M2.47461 49.0238C3.9527 47.1762 9.55713 45.1746 12.1746 44.4048L14.4841 43.481L14.946 40.2477C14.6381 39.9397 13.9298 39.0467 13.5603 37.9381C13.1908 36.8296 13.0984 35.6286 13.0984 35.1667C12.6365 35.0127 11.7127 34.7048 11.7127 32.8572C11.7127 31.0096 12.0206 30.7016 12.1746 30.5477C11.8667 29.1619 11.2508 26.8524 12.1746 25.0048C13.0984 23.1572 15.4079 20.8477 18.6413 20.8477C21.8746 20.8477 25.1079 23.1572 25.5698 25.0048C26.0317 26.8524 25.5698 30.0858 25.5698 30.0858V30.5477C25.8778 30.5477 26.4936 30.8248 26.4936 31.9334C26.4936 33.3191 26.4936 34.2429 26.0317 34.7048C25.6622 35.0743 25.2619 35.1667 25.1079 35.1667C25.1079 35.7826 25.0155 37.1991 24.646 37.9381C24.2765 38.6772 23.2603 39.7858 22.7984 40.2477L23.2603 43.0191L27.5 46" stroke="#C09A5D"/>
<path d="M49.5888 47C49.8968 46.5381 51.9907 44.3124 52.3603 43.9429C52.7298 43.5734 53.438 43.481 53.746 43.481V41.6334C52.5142 41.3254 49.9584 40.6172 49.5888 40.2477C49.2193 39.8781 48.5111 39.4778 48.2031 39.3239C48.819 38.2461 50.0507 35.8134 50.0507 34.7048C50.0507 33.3191 50.5126 26.3905 51.8984 24.5429C53.2841 22.6953 55.1317 21.3096 57.9031 21.3096C60.6746 21.3096 62.9841 22.6953 63.9079 24.5429C64.8317 26.3905 65.6127 31.9334 65.7555 33.3191C65.8983 34.7048 66.2174 36.0905 66.6793 37.0143C67.1412 37.9381 67.7571 38.708 68.065 39.3239C67.2952 39.7858 65.6631 40.7096 65.2936 40.7096C64.9241 40.7096 63.292 41.3254 62.5222 41.6334V43.0191C62.8301 43.327 63.5384 44.0353 63.9079 44.4048C64.3698 44.8667 65.7555 46.2524 67.6031 47.1762C69.4507 48.1 70.1148 48.5381 71.5005 49" stroke="#C09A5D"/>
<path d="M16 66.5L18.1789 57.8C18.6408 55.4905 19.1027 51.7952 20.9503 49.9476C22.798 48.1 26.2667 46.7143 29.5 45.3286L32 43.5L32.9599 42.5571V40.7095C32.6519 40.4016 32.0361 40.2476 31.5742 39.3238C31.1123 38.4 31.1123 37.6302 31.1123 37.0143C30.9583 36.8603 30.558 36.5524 30.1884 36.5524C29.8189 36.5524 29.2646 35.6286 29.2646 34.7048C29.2646 33.781 29.2646 33.1343 29.2646 32.3952C29.2646 31.6562 29.8805 31.1635 30.1884 31.0095C30.1884 31.0095 29.2646 28.2381 29.2646 26.8524C29.2646 25.4667 29.2646 24.081 29.7265 23.1571C30.1884 22.2333 31.4202 21.4635 32.0361 21.3095C32.0361 20.8476 32.3318 20.3616 32.9599 19.9238C33.5879 19.486 35.7313 19 37.5789 19C39.4265 19 42.6599 19.9238 44.0456 22.2333C45.1542 24.081 44.8154 28.854 44.5075 31.0095C44.5075 31.0095 44.9694 31.0095 45.4313 31.4714C45.8932 31.9333 45.8008 32.3952 45.4313 34.2429C45.0618 36.0905 44.0456 36.8603 43.5837 37.0143C43.5837 37.4762 43.4913 38.5848 43.1218 39.3238C42.7523 40.0629 42.044 40.5556 41.7361 40.7095V43.019L43.1218 44.4048L44.5075 45.3286C46.971 46.2524 52.2675 48.3771 53.7456 49.4857C55.2237 50.5943 55.5932 53.027 55.5932 54.1048L58 66.5" stroke="#C09A5D"/>
<circle cx="37" cy="37" r="36.5" stroke="#C09A5D"/>
</svg>
