<svg width="77" height="75" viewBox="0 0 77 75" fill="none" xmlns="http://www.w3.org/2000/svg">
<path fill-rule="evenodd" clip-rule="evenodd" d="M71.4995 33C71.4995 28.6683 71.1317 24.3789 69.474 20.3769C67.8177 16.3782 65.3907 12.7446 62.3312 9.68322C62.3287 9.68073 62.3262 9.67823 62.3237 9.67574L63.0412 8.95825C63.2771 9.19415 63.5094 9.43335 63.7379 9.67576C66.5682 12.6777 68.8305 16.1718 70.4115 19.9886C71.9925 23.8055 72.3782 27.876 72.4995 32C72.5093 32.333 72.5142 32.6664 72.5142 33H71.4995Z" fill="#C09A5D"/>
<path fill-rule="evenodd" clip-rule="evenodd" d="M21.3093 61.9082C25.1056 64.1 29.2964 65.5226 33.6424 66.0947C37.9884 66.6669 42.4046 66.3775 46.6388 65.2429L46.9045 66.2348L46.8999 66.236C46.5792 66.3219 46.2575 66.4031 45.9348 66.4795C41.8683 67.4434 37.6573 67.659 33.5084 67.1128C29.3594 66.5666 25.3477 65.2684 21.6692 63.2849C21.376 63.1268 21.0848 62.9643 20.7959 62.7975L21.3093 61.9082Z" fill="#C09A5D"/>
<path fill-rule="evenodd" clip-rule="evenodd" d="M22.3099 4.09248C18.5136 6.28425 15.1862 9.20228 12.5177 12.68C9.84918 16.1577 7.89176 20.1269 6.75722 24.3611L5.76538 24.0953C5.76579 24.0938 5.76621 24.0922 5.76662 24.0907C5.8526 23.77 5.94315 23.4508 6.03824 23.1332C7.23676 19.1295 9.15554 15.3749 11.7031 12.0549C14.2506 8.73488 17.3807 5.90971 20.9377 3.71581C21.2213 3.54091 21.5075 3.37003 21.7965 3.20322L22.3099 4.09248Z" fill="#C09A5D"/>
<circle cx="41.9998" cy="15" r="5.5" stroke="#C09A5D"/>
<path fill-rule="evenodd" clip-rule="evenodd" d="M39.4418 0H38.9302V0.508475V3.80306L34.2498 7.05938L31.5124 5.48855L31.0693 5.23432L30.8135 5.67467L28.2556 10.0782L27.9998 10.5185L28.4428 10.7728L31.2881 12.4055L31.2882 15L31.2881 17.5945L28.4428 19.2272L27.9998 19.4815L28.2556 19.9218L30.8135 24.3253L31.0693 24.7657L31.5124 24.5114L34.2498 22.9406L38.9302 26.1969V29.4915V30H39.4418H44.5577H45.0693V29.4915V26.1969L49.7498 22.9405L52.4872 24.5113L52.9302 24.7655L53.186 24.3252L55.744 19.9217L55.9998 19.4813L55.5567 19.2271L52.7114 17.5944L52.7113 15L52.7114 12.4057L55.5567 10.7729L55.9998 10.5187L55.744 10.0783L53.186 5.6748L52.9302 5.23445L52.4872 5.48869L49.7498 7.05946L45.0693 3.80306V0.508475V0H44.5577H39.4418ZM51.6882 11.6949L54.6021 10.1464L52.5557 6.62363L49.8974 8.14905L49.6109 8.31345L49.3425 8.12124L44.2586 4.48047L44.0461 4.33254V4.0678V1.01695H39.9534V4.0678V4.33254L39.738 4.48238L34.657 8.12111L34.3886 8.31331L34.1021 8.14892L31.4438 6.6235L29.3975 10.1463L32.3113 11.6951L32.3113 11.8184L32.3116 12.1121L32.3114 15L32.3116 17.8879L32.3116 18.1815L32.3113 18.3049L32.0964 18.3049L32.0558 18.3283L29.3975 19.8537L31.4438 23.3765L34.1021 21.8511L34.3886 21.6867L34.657 21.8789L39.738 25.5176L39.9534 25.6675V25.9322V28.9831H44.0461V25.9322V25.6675L44.2587 25.5196L49.3425 21.8788L49.6109 21.6866L49.8974 21.8509L52.5557 23.3764L54.6021 19.8536L51.9438 18.3281L51.9035 18.3051L51.6882 18.3051L51.6882 18.1815L51.688 17.8878L51.6881 15L51.688 12.1122L51.6879 11.8187L51.6882 11.6949Z" fill="#C09A5D"/>
<circle cx="19.9998" cy="39" r="5.5" stroke="#C09A5D"/>
<path fill-rule="evenodd" clip-rule="evenodd" d="M17.4418 24H16.9302V24.5085V27.8031L12.2498 31.0594L9.51236 29.4886L9.06931 29.2343L8.81351 29.6747L6.25555 34.0782L5.99976 34.5185L6.44281 34.7728L9.28813 36.4055L9.28824 39L9.28813 41.5945L6.44281 43.2272L5.99976 43.4815L6.25555 43.9218L8.81351 48.3253L9.06931 48.7657L9.51236 48.5114L12.2498 46.9406L16.9302 50.1969V53.4915V54H17.4418H22.5577H23.0693V53.4915V50.1969L27.7498 46.9405L30.4872 48.5113L30.9302 48.7655L31.186 48.3252L33.744 43.9217L33.9998 43.4813L33.5567 43.2271L30.7114 41.5944L30.7113 39L30.7114 36.4057L33.5567 34.7729L33.9998 34.5187L33.744 34.0783L31.186 29.6748L30.9302 29.2345L30.4872 29.4887L27.7498 31.0595L23.0693 27.8031V24.5085V24H22.5577H17.4418ZM29.6882 35.6949L32.6021 34.1464L30.5557 30.6236L27.8974 32.1491L27.6109 32.3134L27.3425 32.1212L22.2586 28.4805L22.0461 28.3325V28.0678V25.0169H17.9534V28.0678V28.3325L17.738 28.4824L12.657 32.1211L12.3886 32.3133L12.1021 32.1489L9.44382 30.6235L7.39745 34.1463L10.3113 35.6951L10.3113 35.8184L10.3116 36.1121L10.3114 39L10.3116 41.8879L10.3116 42.1815L10.3113 42.3049L10.0964 42.3049L10.0558 42.3283L7.39745 43.8537L9.44382 47.3765L12.1021 45.8511L12.3886 45.6867L12.657 45.8789L17.738 49.5176L17.9534 49.6675V49.9322V52.9831H22.0461V49.9322V49.6675L22.2587 49.5196L27.3425 45.8788L27.6109 45.6866L27.8974 45.8509L30.5557 47.3764L32.6021 43.8536L29.9438 42.3281L29.9035 42.3051L29.6882 42.3051L29.6882 42.1815L29.688 41.8878L29.6881 39L29.688 36.1122L29.6879 35.8187L29.6882 35.6949Z" fill="#C09A5D"/>
<circle cx="52.9998" cy="45" r="5.5" stroke="#C09A5D"/>
<path fill-rule="evenodd" clip-rule="evenodd" d="M50.4418 30H49.9302V30.5085V33.8031L45.2498 37.0594L42.5124 35.4886L42.0693 35.2343L41.8135 35.6747L39.2556 40.0782L38.9998 40.5185L39.4428 40.7728L42.2881 42.4055L42.2882 45L42.2881 47.5945L39.4428 49.2272L38.9998 49.4815L39.2556 49.9218L41.8135 54.3253L42.0693 54.7657L42.5124 54.5114L45.2498 52.9406L49.9302 56.1969V59.4915V60H50.4418H55.5577H56.0693V59.4915V56.1969L60.7498 52.9405L63.4872 54.5113L63.9302 54.7655L64.186 54.3252L66.744 49.9217L66.9998 49.4813L66.5567 49.2271L63.7114 47.5944L63.7113 45L63.7114 42.4057L66.5567 40.7729L66.9998 40.5187L66.744 40.0783L64.186 35.6748L63.9302 35.2345L63.4872 35.4887L60.7498 37.0595L56.0693 33.8031V30.5085V30H55.5577H50.4418ZM62.6882 41.6949L65.6021 40.1464L63.5557 36.6236L60.8974 38.1491L60.6109 38.3134L60.3425 38.1212L55.2586 34.4805L55.0461 34.3325V34.0678V31.0169H50.9534V34.0678V34.3325L50.738 34.4824L45.657 38.1211L45.3886 38.3133L45.1021 38.1489L42.4438 36.6235L40.3975 40.1463L43.3113 41.6951L43.3113 41.8184L43.3116 42.1121L43.3114 45L43.3116 47.8879L43.3116 48.1815L43.3113 48.3049L43.0964 48.3049L43.0558 48.3283L40.3975 49.8537L42.4438 53.3765L45.1021 51.8511L45.3886 51.6867L45.657 51.8789L50.738 55.5176L50.9534 55.6675V55.9322V58.9831H55.0461V55.9322V55.6675L55.2587 55.5196L60.3425 51.8788L60.6109 51.6866L60.8974 51.8509L63.5557 53.3764L65.6021 49.8536L62.9438 48.3281L62.9035 48.3051L62.6882 48.3051L62.6882 48.1815L62.688 47.8878L62.6881 45L62.688 42.1122L62.6879 41.8187L62.6882 41.6949Z" fill="#C09A5D"/>
<path d="M14.5 2L22 3.5L20 9.5" stroke="#C09A5D"/>
<path d="M76.5 29L71.9445 33.5795L68.1325 28.5328" stroke="#C09A5D"/>
<path d="M23.4697 68.2334L20.9721 62.2763L27.0907 60.6755" stroke="#C09A5D"/>
</svg>
